<svg width="130" height="94" viewBox="0 0 130 94" fill="none" xmlns="http://www.w3.org/2000/svg">
<path d="M0.776001 94V0.559998H24.968C31.0267 0.559998 36.232 1.712 40.584 4.016C45.0213 6.31999 48.4347 9.56266 50.824 13.744C53.2987 17.9253 54.536 22.8747 54.536 28.592V65.84C54.536 71.5573 53.2987 76.5493 50.824 80.816C48.4347 84.9973 45.0213 88.24 40.584 90.544C36.232 92.848 31.0267 94 24.968 94H0.776001ZM12.296 83.76H24.968C30.6 83.76 34.9947 82.1813 38.152 79.024C41.3947 75.8667 43.016 71.472 43.016 65.84V28.592C43.016 23.0453 41.3947 18.6933 38.152 15.536C34.9947 12.3787 30.6 10.8 24.968 10.8H12.296V83.76ZM79.19 94V83.504H98.262V11.056H79.19V0.559998H129.11V11.056H110.038V83.504H129.11V94H79.19Z" fill="white"/>
</svg>
